<svg width="524" height="804" viewBox="0 0 524 804" fill="none" xmlns="http://www.w3.org/2000/svg">
<path d="M238.398 118.241C238.398 118.241 236.916 120.6 234.139 125.025C231.379 129.459 227.331 135.964 222.18 144.24C219.65 148.407 216.852 153.02 213.803 158.042C210.81 163.096 207.582 168.565 204.19 174.44C197.474 186.229 190.111 199.648 182.779 214.619C175.553 229.633 168.348 246.206 162.281 264.241C156.223 282.261 151.346 301.79 149.042 322.301C148.806 324.867 148.568 327.445 148.331 330.033C148.092 332.619 147.803 335.211 147.81 337.83C147.744 340.443 147.679 343.065 147.613 345.697L147.512 349.647C147.467 350.901 147.541 352.304 147.549 353.629C147.794 364.175 148.791 374.91 150.294 385.647C151.811 396.385 153.74 407.208 156.031 417.984C158.225 428.91 160.707 439.631 163.286 450.415C168.49 471.992 174.336 493.445 180.092 514.62C185.845 535.795 191.482 556.701 196.413 577.131C201.329 597.561 205.652 617.494 208.668 636.664C209.547 641.431 210.098 646.196 210.769 650.866C211.09 653.205 211.41 655.525 211.728 657.826C212.058 660.127 212.225 662.434 212.478 664.71C212.929 669.269 213.429 673.745 213.815 678.152C214.088 682.575 214.355 686.913 214.619 691.165C214.684 692.228 214.748 693.286 214.814 694.337L214.906 695.994L214.953 697.532C215.006 699.595 215.1 701.554 215.117 703.641C215.133 705.723 215.148 707.783 215.163 709.817C215.131 711.832 215.1 713.823 215.07 715.789C214.855 723.662 214.29 731.166 213.439 738.223C212.552 745.28 211.302 751.878 209.876 757.95C208.342 764.005 206.698 769.546 204.806 774.451C201.095 784.282 197.036 791.662 193.953 796.483C193.238 797.722 192.484 798.745 191.861 799.645C191.233 800.541 190.705 801.296 190.279 801.903C189.425 803.118 188.985 803.745 188.985 803.745L173.359 791.689C173.359 791.689 173.732 791.184 174.454 790.208C174.817 789.719 175.267 789.114 175.8 788.394C176.333 787.673 176.982 786.858 177.594 785.845C180.246 781.946 183.79 775.923 187.207 767.596C188.948 763.45 190.507 758.664 192.014 753.371C193.419 748.037 194.71 742.167 195.695 735.771C196.644 729.365 197.363 722.463 197.769 715.113C197.849 713.271 197.93 711.407 198.011 709.519C198.049 707.647 198.088 705.753 198.128 703.837C198.169 701.925 198.129 699.839 198.133 697.813L198.129 696.275L198.084 694.843C198.049 693.831 198.014 692.812 197.978 691.788C197.84 687.692 197.698 683.508 197.554 679.245C197.298 674.982 196.933 670.642 196.62 666.223C196.435 664.014 196.34 661.782 196.081 659.54C195.833 657.297 195.585 655.037 195.335 652.758C194.808 648.202 194.407 643.564 193.675 638.887C191.258 620.133 187.558 600.441 183.259 580.12C178.946 559.797 173.919 538.855 168.755 517.535C163.591 496.216 158.312 474.501 153.667 452.604C151.364 441.644 149.128 430.58 147.253 419.681C145.231 408.683 143.579 397.671 142.331 386.646C141.101 375.618 140.378 364.621 140.428 353.661C140.457 352.297 140.42 351.016 140.504 349.593L140.717 345.523C140.859 342.816 141.002 340.119 141.144 337.431C141.214 334.74 141.581 332.082 141.9 329.432C142.217 326.783 142.535 324.145 142.851 321.518C145.794 300.552 151.324 280.812 157.966 262.728C164.618 244.627 172.346 228.13 180.029 213.234C187.818 198.386 195.573 185.136 202.627 173.514C206.187 167.723 209.57 162.337 212.706 157.363C215.894 152.423 218.822 147.886 221.467 143.788C226.847 135.653 231.075 129.262 233.957 124.905C236.852 120.56 238.398 118.241 238.398 118.241Z" fill="#76945A"/>
<path d="M255.655 590.669C255.655 590.669 255.134 590.912 254.159 591.367C253.915 591.48 253.643 591.605 253.341 591.743C253.056 591.904 252.745 592.081 252.407 592.271C252.074 592.459 251.715 592.661 251.333 592.878C250.955 593.1 250.57 593.374 250.155 593.641C248.491 594.698 246.638 596.225 244.711 598.136C242.792 600.059 240.864 602.448 239.084 605.254C237.307 608.059 235.691 611.293 234.369 614.847C234.205 615.293 234.041 615.74 233.876 616.191C233.728 616.648 233.58 617.108 233.431 617.57C233.112 618.489 232.88 619.446 232.614 620.402L232.515 620.762L232.48 620.908L232.436 621.098L232.261 621.859C232.143 622.366 232.024 622.874 231.906 623.386C231.721 624.383 231.493 625.348 231.337 626.39C231.251 626.904 231.166 627.42 231.081 627.938C231.008 628.459 230.934 628.983 230.86 629.508C230.698 630.555 230.594 631.625 230.464 632.694C230.251 634.843 230.067 637.024 229.936 639.239C229.674 643.664 229.553 648.206 229.43 652.781C229.354 655.071 229.28 657.364 229.175 659.663L229.092 661.392L228.991 663.093C228.904 664.242 228.833 665.402 228.726 666.54C228.338 671.104 227.71 675.607 226.732 679.914C226.26 682.068 225.673 684.17 225.027 686.201C224.338 688.224 223.626 690.191 222.767 692.044C222.553 692.507 222.341 692.967 222.131 693.424C221.909 693.875 221.671 694.316 221.444 694.756C221.21 695.193 220.999 695.637 220.751 696.058C220.502 696.478 220.256 696.895 220.011 697.309C219.539 698.145 218.983 698.914 218.474 699.685C218.344 699.877 218.216 700.068 218.088 700.257C217.953 700.442 217.818 700.624 217.684 700.807C217.422 701.161 217.173 701.506 216.892 701.857C214.73 704.653 212.671 706.969 211.01 709.166C209.367 711.358 208.082 713.362 207.282 715.15C206.479 716.935 206.113 718.452 205.925 719.501C205.803 720.566 205.737 721.134 205.737 721.134C205.737 721.134 205.726 720.992 205.705 720.714C205.689 720.437 205.636 720.022 205.625 719.479C205.646 718.4 205.715 716.771 206.303 714.79C206.868 712.81 207.891 710.498 209.34 708.052C210.063 706.83 210.865 705.549 211.723 704.234C212.57 702.919 213.513 701.545 214.383 700.141C214.605 699.796 214.829 699.412 215.059 699.042C215.169 698.861 215.28 698.679 215.391 698.497C215.493 698.309 215.597 698.121 215.703 697.933C216.113 697.174 216.565 696.426 216.934 695.61C217.129 695.21 217.327 694.806 217.524 694.399C217.725 693.993 217.89 693.565 218.077 693.145C218.256 692.72 218.447 692.299 218.62 691.865C218.784 691.427 218.949 690.985 219.114 690.541C219.782 688.768 220.35 686.899 220.872 684.974C221.346 683.032 221.832 681.049 222.172 678.989C222.542 676.94 222.831 674.83 223.084 672.689C223.189 671.613 223.319 670.537 223.396 669.444C223.5 668.355 223.581 667.256 223.652 666.152C223.733 665.046 223.777 663.947 223.84 662.832C223.886 661.707 223.933 660.578 223.979 659.448C224.069 657.192 224.123 654.91 224.189 652.625C224.342 648.051 224.479 643.44 224.869 638.878C225.228 634.319 225.835 629.807 226.785 625.494C226.998 624.421 227.307 623.327 227.562 622.262C227.707 621.754 227.851 621.247 227.995 620.743L228.215 619.994L228.341 619.58L228.47 619.199C228.819 618.184 229.133 617.17 229.535 616.203C229.726 615.716 229.915 615.23 230.103 614.749C230.315 614.278 230.526 613.81 230.735 613.344C232.42 609.631 234.436 606.323 236.609 603.516C238.778 600.703 241.127 598.42 243.38 596.647C245.625 594.859 247.786 593.582 249.643 592.74C250.107 592.526 250.533 592.307 250.954 592.133C251.382 591.977 251.782 591.83 252.157 591.695C252.527 591.561 252.87 591.437 253.183 591.323C253.502 591.237 253.792 591.158 254.053 591.087C255.099 590.814 255.655 590.669 255.655 590.669Z" fill="#76945A"/>
<path d="M5.46484 353.592C5.46484 353.592 5.75227 355.48 6.29173 359.02C6.81553 362.557 7.58429 367.743 8.56215 374.345C9.07741 377.636 9.64815 381.278 10.2687 385.245C10.9975 389.192 11.5896 393.484 12.4436 398.027C12.8635 400.297 13.2991 402.642 13.746 405.054C14.1958 407.464 14.7608 409.921 15.2832 412.45C15.548 413.714 15.8171 414.994 16.0875 416.289C16.3893 417.576 16.6938 418.878 17.0013 420.196C17.6461 422.822 18.2069 425.534 18.9584 428.251C19.6929 430.968 20.443 433.743 21.2059 436.569C22.0742 439.356 22.9568 442.195 23.8563 445.083C25.795 450.796 27.8475 456.675 30.411 462.501C35.4099 474.189 41.8762 485.922 50.2684 496.653C52.2298 499.446 54.6724 501.868 56.9214 504.479L58.6351 506.419L58.85 506.662C58.8201 506.627 58.9781 506.792 59.0351 506.847L59.5148 507.334L60.4755 508.309C61.7722 509.603 62.891 510.695 64.2261 511.923C69.3844 516.721 75.0252 521.28 80.8397 525.902C83.7847 528.217 86.7411 530.541 89.706 532.871L94.1981 536.445L96.4371 538.278L97.5559 539.202L98.7572 540.244C101.614 542.742 104.473 545.246 107.337 547.751C110.194 550.36 113.034 553.177 115.882 555.887C126.971 566.967 137.144 578.762 146.217 591.15C148.422 594.285 150.618 597.41 152.803 600.517C154.912 603.674 156.871 606.909 158.892 610.072C160.956 613.209 162.725 616.5 164.577 619.707C165.491 621.317 166.4 622.921 167.307 624.519C168.208 626.119 168.985 627.78 169.824 629.399C176.629 642.293 181.971 655.365 186.357 667.94C190.857 680.489 193.803 692.763 196.276 704.073C196.785 706.926 197.285 709.718 197.773 712.45C198.016 713.812 198.257 715.16 198.495 716.491C198.715 717.825 198.848 719.158 199.018 720.465C199.633 725.697 200.372 730.655 200.672 735.349C201.428 744.796 200.95 753.164 199.562 759.861C198.9 763.216 197.917 766.121 196.955 768.576C195.917 771.013 194.885 773.002 193.934 774.539C193.444 775.296 193.011 775.965 192.638 776.542C192.216 777.084 191.862 777.541 191.577 777.908C191.009 778.637 190.715 779.014 190.715 779.014C190.715 779.014 190.948 778.597 191.399 777.79C191.623 777.389 191.9 776.889 192.23 776.297C192.515 775.682 192.844 774.97 193.217 774.163C193.937 772.546 194.67 770.49 195.342 768.037C195.921 765.555 196.521 762.702 196.79 759.448C197.37 752.951 196.841 744.994 195.321 736.017C193.677 726.988 191.292 716.864 188.335 705.995C187.552 703.286 186.669 700.545 185.82 697.742C184.958 694.942 184.123 692.08 183.044 689.24C182.033 686.382 181.004 683.477 179.959 680.526C178.855 677.6 177.615 674.672 176.427 671.684C171.529 659.791 165.793 647.484 158.824 635.34C151.91 623.177 144.1 610.996 135.243 599.306C126.344 587.675 116.544 576.365 106.026 565.959C103.366 563.405 100.821 560.829 98.0754 558.288C95.2258 555.766 92.3776 553.248 89.5366 550.733L88.5957 549.904L87.5268 549.012L85.3818 547.23L81.0547 543.669C78.1211 541.285 75.1975 538.907 72.2852 536.539C66.4195 531.756 60.595 526.807 55.1392 521.427C53.8012 520.133 52.3395 518.623 51.0883 517.301L50.1546 516.3L49.6891 515.799L49.4015 515.491L49.171 515.217L47.3292 513.026C44.9109 510.087 42.3716 507.276 40.3148 504.147C31.5155 492.04 25.1842 479.022 20.5839 466.379C16.0077 453.705 13.0002 441.392 11.0174 429.974C9.04179 418.55 7.85465 408.035 7.1273 398.718C6.72449 394.062 6.46831 389.702 6.2363 385.672C6.07404 381.643 5.9246 377.941 5.7908 374.597C5.5716 367.91 5.53458 362.658 5.49473 359.081C5.47196 355.501 5.46484 353.592 5.46484 353.592Z" fill="#76945A"/>
<path d="M141.648 401.633C143.397 402.635 145.091 403.813 146.718 405.14C146.103 400.551 145.737 396.565 145.701 393.438C145.637 387.806 146.054 382.357 146.883 377.252C143.891 375.635 140.892 375.085 138.078 375.833C131.386 377.609 127.381 386.279 126.852 397.891C131.559 397.498 136.627 398.755 141.648 401.633Z" fill="#88328F"/>
<path d="M174.322 501.32C174.786 505.131 175.064 507.596 175.12 508.091L175.287 509.595L173.932 510.268C173.594 510.436 173.228 510.557 172.842 510.628C170.865 510.992 167.556 510.453 159.435 502.986C154.545 498.489 148.518 492.022 142.006 484.281C129.594 469.529 117.635 452.783 113.568 444.462C113.509 444.338 113.455 444.214 113.395 444.091C99.8898 439.429 86.6892 441.803 81.4113 450.778C74.9236 461.809 82.8618 478.635 99.1424 488.359C115.423 498.082 178.222 518.836 182.678 511.26C182.68 511.261 179.407 507.287 174.322 501.32Z" fill="#98619C"/>
<path d="M157.014 422.888C165.338 439.926 172.969 508.331 172.969 508.331C165.097 512.242 123.835 460.552 115.511 443.513C107.187 426.475 109.729 408.045 121.19 402.349C132.65 396.654 148.69 405.849 157.014 422.888Z" fill="#98619C"/>
<path d="M239.178 421.726C234.017 417.596 226.819 417.096 219.448 419.623C221.568 426.698 221.442 435.451 218.559 444.173C214.497 456.464 197.476 486.045 185.514 500.935C185.282 502.614 185.338 504.364 185.204 506.072C185.194 506.205 185.177 506.336 185.164 506.469C203.228 494.548 228.237 472.991 235.999 463.16C247.747 448.273 249.17 429.723 239.178 421.726Z" fill="#98619C"/>
<path d="M196.995 407.165C195.909 421.334 193.477 440.713 190.384 459.018C185.87 485.727 182.148 498.429 179.418 504.601C191.215 492.757 212.157 456.659 216.508 443.493C221.877 427.245 217.337 411.027 206.367 407.268C203.343 406.233 200.149 406.256 196.995 407.165Z" fill="#B97EB6"/>
<path d="M196.518 405.056C197.118 404.888 197.723 404.744 198.32 404.633C201.352 404.075 204.294 404.273 207.067 405.224C210.298 406.331 213.028 408.401 215.192 411.161C217.004 392.176 211.946 376.724 202.128 374.325C199.829 373.763 197.439 373.967 195.035 374.822C196.215 380.44 196.901 386.585 196.975 393.07C197.011 396.224 196.849 400.309 196.518 405.056Z" fill="#88328F"/>
<path d="M148.495 393.42C148.792 419.516 172.968 508.33 172.968 508.33C181.753 508.269 195.112 419.19 194.813 393.094C194.515 366.998 183.904 345.915 171.114 346.004C158.325 346.094 148.197 367.324 148.495 393.42Z" fill="#88328F"/>
<path d="M137.254 483.036C137.254 483.036 138.239 483.191 139.803 483.649C140.589 483.873 141.517 484.176 142.552 484.557C143.588 484.936 144.721 485.403 145.927 485.948C148.339 487.035 150.992 488.484 153.658 490.229C154.988 491.106 156.323 492.054 157.631 493.068C158.93 494.092 160.227 495.154 161.464 496.282C162.694 497.419 163.904 498.565 165.023 499.779C166.15 500.98 167.212 502.2 168.175 503.453C168.661 504.073 169.128 504.691 169.569 505.307C170.012 505.925 170.419 506.558 170.811 507.172C171.203 507.787 171.57 508.393 171.916 508.985C172.252 509.593 172.562 510.191 172.845 510.772C173.122 511.358 173.399 511.906 173.634 512.447C173.857 513.001 174.069 513.53 174.243 514.038C174.59 515.057 174.892 515.914 175.029 516.711C175.348 518.256 175.376 519.161 175.376 519.161C175.376 519.161 174.45 518.751 173.096 517.997C172.44 517.614 171.562 517.19 170.652 516.669C169.752 516.146 168.737 515.556 167.632 514.912C167.085 514.588 166.538 514.237 165.973 513.876C165.393 513.519 164.803 513.143 164.211 512.749C163.616 512.356 163.026 511.942 162.418 511.515C161.799 511.095 161.184 510.653 160.567 510.196C159.348 509.278 158.077 508.323 156.847 507.304C155.625 506.281 154.374 505.232 153.183 504.137C150.79 501.948 148.496 499.652 146.49 497.339C144.472 495.039 142.727 492.739 141.338 490.645C139.944 488.555 138.905 486.677 138.235 485.294C137.558 483.917 137.254 483.036 137.254 483.036Z" fill="#76945A"/>
<path d="M165.928 467.874C165.928 467.874 166.591 468.573 167.516 469.842C167.986 470.476 168.514 471.254 169.083 472.154C169.65 473.053 170.243 474.078 170.845 475.204C172.049 477.457 173.237 480.129 174.266 483.04C175.303 485.949 176.155 489.103 176.808 492.296C177.448 495.492 177.885 498.728 178.056 501.81C178.236 504.89 178.173 507.81 177.931 510.35C177.809 511.621 177.658 512.793 177.48 513.84C177.3 514.888 177.112 515.809 176.923 516.573C176.556 518.101 176.211 519 176.211 519C176.211 519 175.545 518.301 174.616 517.032C174.145 516.398 173.615 515.621 173.044 514.721C172.477 513.822 171.882 512.797 171.278 511.671C170.073 509.418 168.884 506.746 167.859 503.835C166.824 500.926 165.976 497.77 165.331 494.576C164.699 491.378 164.265 488.141 164.097 485.06C163.921 481.979 163.983 479.059 164.224 476.519C164.343 475.25 164.494 474.077 164.671 473.029C164.847 471.982 165.035 471.062 165.223 470.298C165.586 468.772 165.928 467.874 165.928 467.874Z" fill="#76945A"/>
<path d="M195.464 478.192C195.464 478.192 195.613 479.019 195.66 480.378C195.689 481.06 195.686 481.874 195.647 482.792C195.607 483.71 195.519 484.728 195.383 485.823C195.108 488.01 194.587 490.483 193.804 493.042C193.028 495.604 191.965 498.242 190.72 500.807C189.461 503.366 188.017 505.85 186.441 508.09C184.874 510.333 183.197 512.342 181.587 513.994C180.782 514.82 180.004 515.561 179.279 516.203C178.55 516.844 177.885 517.39 177.304 517.829C176.157 518.708 175.376 519.161 175.376 519.161C175.376 519.161 175.222 518.333 175.173 516.973C175.144 516.29 175.145 515.477 175.181 514.558C175.219 513.64 175.306 512.621 175.441 511.526C175.714 509.337 176.235 506.864 177.022 504.308C177.801 501.747 178.866 499.111 180.12 496.549C181.385 493.993 182.834 491.51 184.413 489.271C185.984 487.03 187.659 485.021 189.268 483.369C190.072 482.542 190.848 481.8 191.572 481.158C192.298 480.516 192.963 479.97 193.541 479.531C194.685 478.646 195.464 478.192 195.464 478.192Z" fill="#76945A"/>
<path d="M199.248 498.747C199.248 498.747 199.215 498.888 199.135 499.134C199.049 499.373 198.945 499.746 198.765 500.176C198.421 501.047 197.869 502.228 197.087 503.528C196.307 504.829 195.304 506.251 194.105 507.649C192.913 509.054 191.519 510.43 190.033 511.711C188.54 512.985 186.95 514.162 185.346 515.151C184.546 515.648 183.746 516.099 182.963 516.503C182.183 516.911 181.406 517.256 180.683 517.568C179.225 518.182 177.911 518.593 176.948 518.836C176.472 518.964 176.064 519.029 175.799 519.088C175.529 519.141 175.375 519.16 175.375 519.16C175.375 519.16 175.406 519.017 175.486 518.771C175.571 518.532 175.675 518.157 175.853 517.728C176.195 516.855 176.747 515.671 177.527 514.371C177.923 513.726 178.358 513.036 178.861 512.347C179.359 511.655 179.913 510.951 180.511 510.252C181.705 508.849 183.1 507.474 184.59 506.197C186.087 504.926 187.679 503.751 189.283 502.764C190.881 501.77 192.49 500.96 193.947 500.347C195.403 499.732 196.716 499.319 197.678 499.074C198.152 498.945 198.56 498.881 198.824 498.819C199.094 498.765 199.248 498.747 199.248 498.747Z" fill="#76945A"/>
<path d="M145.793 508.59C145.793 508.59 145.944 508.551 146.214 508.506C146.482 508.469 146.886 508.383 147.376 508.335C148.362 508.221 149.734 508.14 151.314 508.195C152.896 508.249 154.686 508.433 156.534 508.792C158.386 509.142 160.29 509.674 162.142 510.328C163.989 510.989 165.783 511.777 167.399 512.663C168.207 513.105 168.974 513.564 169.687 514.034C170.402 514.499 171.055 514.989 171.654 515.45C172.847 516.387 173.784 517.296 174.414 517.991C174.733 518.33 174.964 518.641 175.129 518.835C175.291 519.037 175.371 519.158 175.371 519.158C175.371 519.158 175.22 519.197 174.949 519.244C174.682 519.282 174.276 519.367 173.787 519.417C172.8 519.533 171.425 519.616 169.845 519.562C169.058 519.528 168.21 519.483 167.336 519.38C166.46 519.282 165.551 519.144 164.627 518.965C162.777 518.612 160.872 518.079 159.023 517.42C157.177 516.753 155.385 515.964 153.771 515.076C152.153 514.196 150.708 513.224 149.516 512.288C148.324 511.352 147.386 510.444 146.754 509.754C146.435 509.417 146.204 509.105 146.038 508.913C145.873 508.711 145.793 508.59 145.793 508.59Z" fill="#76945A"/>
<path d="M184.9 174.143C185.775 175.747 186.524 177.461 187.151 179.257C188.854 175.421 190.462 172.17 191.918 169.737C194.541 165.358 197.449 161.347 200.511 157.797C198.968 155.128 196.911 153.28 194.385 152.522C188.374 150.718 181.167 155.514 175.246 164.23C179.069 166.161 182.389 169.537 184.9 174.143Z" fill="#88328F"/>
<path d="M162.83 266.638C161.38 269.802 160.424 271.838 160.232 272.246L159.649 273.486L158.284 273.364C157.942 273.332 157.602 273.253 157.27 273.125C155.571 272.468 153.271 270.48 150.542 260.861C148.899 255.068 147.314 247.212 145.956 238.144C143.37 220.86 142.08 202.252 142.889 193.897C142.9 193.773 142.918 193.652 142.931 193.528C134.713 183.519 123.393 179.089 115.057 183.516C104.812 188.957 102.958 205.719 110.918 220.953C118.877 236.188 157.531 282.019 164.568 278.281C164.566 278.281 163.925 273.66 162.83 266.638Z" fill="#98619C"/>
<path d="M186.68 197.851C185.025 214.96 158.456 271.412 158.456 271.412C150.521 270.698 143.182 211.196 144.837 194.086C146.492 176.977 157.202 163.949 168.757 164.989C180.313 166.028 188.337 180.74 186.68 197.851Z" fill="#98619C"/>
<path d="M250.699 235.944C248.674 230.305 243.352 226.505 236.458 224.957C234.739 231.428 230.487 238.128 224.122 243.497C215.152 251.062 187.97 265.831 171.665 271.654C170.688 272.841 169.901 274.219 168.989 275.474C168.918 275.573 168.842 275.665 168.77 275.762C188.378 275.127 217.923 270.346 228.581 266.435C244.72 260.512 254.621 246.862 250.699 235.944Z" fill="#98619C"/>
<path d="M225.02 204.68C217.459 215.108 206.384 228.92 195.307 241.59C179.146 260.076 170.244 268.12 165.207 271.591C179.939 268.042 213.242 250.101 222.851 241.997C234.708 231.996 238.897 217.315 232.208 209.206C230.365 206.973 227.887 205.476 225.02 204.68Z" fill="#B97EB6"/>
<path d="M225.656 202.825C226.199 202.979 226.735 203.156 227.248 203.353C229.854 204.361 232.032 205.91 233.723 207.959C235.692 210.348 236.818 213.242 237.18 216.4C247.588 202.598 251.015 188.263 244.572 181.752C243.063 180.228 241.12 179.25 238.858 178.77C237.103 183.669 234.717 188.741 231.697 193.784C230.227 196.238 228.163 199.315 225.656 202.825Z" fill="#88328F"/>
<path d="M194.086 171.05C181.931 191.347 158.457 271.412 158.457 271.412C165.271 275.533 217.859 213.075 230.013 192.778C242.167 172.48 243.976 151.164 234.055 145.163C224.134 139.162 206.24 150.752 194.086 171.05Z" fill="#88328F"/>
<path d="M142.886 234.93C142.886 234.93 143.574 235.517 144.563 236.613C145.064 237.16 145.638 237.833 146.255 238.619C146.876 239.403 147.529 240.301 148.203 241.295C149.551 243.279 150.911 245.658 152.143 248.271C152.753 249.579 153.334 250.944 153.864 252.347C154.382 253.757 154.878 255.19 155.298 256.649C155.708 258.111 156.098 259.57 156.387 261.039C156.687 262.5 156.928 263.948 157.079 265.371C157.159 266.082 157.227 266.779 157.274 267.465C157.324 268.153 157.337 268.834 157.349 269.495C157.361 270.155 157.356 270.799 157.342 271.419C157.314 272.047 157.27 272.658 157.213 273.24C157.147 273.823 157.102 274.378 157.026 274.908C156.935 275.442 156.848 275.951 156.742 276.425C156.527 277.376 156.352 278.182 156.08 278.862C155.593 280.206 155.186 280.919 155.186 280.919C155.186 280.919 154.665 280.163 153.977 278.938C153.653 278.331 153.175 277.585 152.721 276.753C152.274 275.923 151.771 274.985 151.222 273.963C150.953 273.453 150.698 272.924 150.433 272.376C150.154 271.825 149.878 271.256 149.608 270.669C149.334 270.083 149.075 269.483 148.808 268.866C148.529 268.248 148.264 267.615 148.003 266.97C147.497 265.682 146.969 264.342 146.503 262.97C146.046 261.599 145.577 260.196 145.177 258.785C144.367 255.96 143.685 253.096 143.234 250.359C142.767 247.625 142.509 245.02 142.431 242.744C142.347 240.469 142.437 238.525 142.573 237.139C142.703 235.755 142.886 234.93 142.886 234.93Z" fill="#76945A"/>
<path d="M172.228 236.828C172.228 236.828 172.409 237.682 172.522 239.103C172.583 239.815 172.623 240.667 172.635 241.631C172.647 242.594 172.618 243.668 172.549 244.823C172.411 247.135 172.059 249.763 171.473 252.498C170.893 255.237 170.054 258.078 169.044 260.855C168.022 263.628 166.824 266.334 165.494 268.795C164.172 271.258 162.737 273.485 161.345 275.332C160.648 276.256 159.975 277.089 159.341 277.814C158.706 278.539 158.123 279.16 157.613 279.661C156.605 280.666 155.912 281.196 155.912 281.196C155.912 281.196 155.729 280.341 155.613 278.919C155.551 278.206 155.509 277.355 155.495 276.39C155.482 275.425 155.511 274.353 155.578 273.196C155.716 270.884 156.066 268.256 156.655 265.521C157.237 262.782 158.079 259.944 159.096 257.17C160.125 254.4 161.327 251.694 162.659 249.234C163.984 246.772 165.419 244.546 166.81 242.698C167.506 241.775 168.177 240.94 168.811 240.215C169.444 239.489 170.026 238.868 170.533 238.367C171.538 237.361 172.228 236.828 172.228 236.828Z" fill="#76945A"/>
<path d="M190.143 258.811C190.143 258.811 189.867 259.521 189.258 260.592C188.956 261.133 188.569 261.759 188.103 262.451C187.636 263.141 187.085 263.885 186.46 264.665C185.211 266.225 183.634 267.888 181.815 269.492C180 271.102 177.927 272.635 175.748 274.025C173.562 275.405 171.267 276.637 168.987 277.619C166.711 278.609 164.464 279.363 162.437 279.876C161.422 280.13 160.471 280.335 159.606 280.486C158.739 280.636 157.966 280.742 157.31 280.805C156.006 280.94 155.188 280.919 155.188 280.919C155.188 280.919 155.462 280.207 156.07 279.133C156.37 278.59 156.757 277.963 157.221 277.271C157.687 276.579 158.238 275.835 158.861 275.053C160.111 273.492 161.687 271.831 163.507 270.228C165.323 268.619 167.397 267.089 169.581 265.706C171.771 264.332 174.069 263.102 176.349 262.122C178.626 261.135 180.874 260.38 182.901 259.867C183.914 259.611 184.865 259.406 185.73 259.254C186.596 259.103 187.369 258.996 188.023 258.932C189.327 258.792 190.143 258.811 190.143 258.811Z" fill="#76945A"/>
<path d="M183.311 276.482C183.311 276.482 183.218 276.576 183.04 276.727C182.859 276.869 182.602 277.11 182.26 277.356C181.581 277.866 180.593 278.516 179.374 279.148C178.154 279.782 176.705 280.405 175.115 280.916C173.526 281.436 171.798 281.837 170.042 282.12C168.284 282.396 166.498 282.55 164.79 282.553C163.937 282.556 163.104 282.526 162.307 282.466C161.512 282.411 160.747 282.308 160.041 282.207C158.625 281.989 157.415 281.683 156.555 281.414C156.127 281.288 155.781 281.144 155.549 281.064C155.316 280.977 155.188 280.917 155.188 280.917C155.188 280.917 155.28 280.824 155.458 280.671C155.639 280.527 155.895 280.287 156.237 280.039C156.916 279.528 157.903 278.875 159.122 278.242C159.732 277.931 160.397 277.604 161.112 277.311C161.826 277.013 162.586 276.731 163.38 276.475C164.969 275.958 166.698 275.558 168.455 275.279C170.214 275.009 172.001 274.857 173.709 274.855C175.415 274.847 177.041 274.983 178.458 275.203C179.875 275.419 181.084 275.724 181.943 275.99C182.37 276.115 182.717 276.259 182.949 276.337C183.184 276.424 183.311 276.482 183.311 276.482Z" fill="#76945A"/>
<path d="M137.355 258.72C137.355 258.72 137.489 258.763 137.721 258.855C137.945 258.953 138.298 259.08 138.699 259.275C139.515 259.655 140.614 260.243 141.808 261.036C143.004 261.827 144.299 262.819 145.556 263.974C146.819 265.122 148.038 266.437 149.158 267.821C150.271 269.209 151.282 270.668 152.109 272.12C152.524 272.844 152.897 273.563 153.226 274.265C153.558 274.964 153.83 275.651 154.073 276.292C154.55 277.581 154.842 278.728 155 279.562C155.085 279.975 155.115 280.325 155.15 280.553C155.18 280.785 155.185 280.918 155.185 280.918C155.185 280.918 155.05 280.876 154.819 280.784C154.594 280.687 154.241 280.56 153.838 280.365C153.021 279.987 151.92 279.399 150.725 278.607C150.133 278.207 149.5 277.769 148.873 277.275C148.243 276.784 147.607 276.246 146.978 275.67C145.715 274.519 144.498 273.204 143.382 271.818C142.273 270.427 141.264 268.967 140.439 267.515C139.606 266.067 138.951 264.631 138.476 263.342C137.999 262.054 137.704 260.908 137.545 260.074C137.458 259.661 137.428 259.311 137.391 259.084C137.361 258.851 137.355 258.72 137.355 258.72Z" fill="#76945A"/>
<path d="M274.096 28.1228C274.482 29.6358 274.748 31.2485 274.903 32.9395C276.954 29.3668 278.821 26.3407 280.417 24.079C283.291 20.0067 286.318 16.2846 289.382 12.9966C288.671 10.48 287.406 8.72502 285.568 7.98486C281.197 6.22557 274.655 10.6338 268.387 18.7285C271.021 20.5789 272.988 23.7801 274.096 28.1228Z" fill="#88328F"/>
<path d="M239.51 114.492C237.783 117.438 236.653 119.333 236.427 119.713L235.738 120.867L234.692 120.736C234.43 120.703 234.178 120.624 233.943 120.501C232.735 119.867 231.304 117.978 230.965 108.938C230.762 103.493 230.988 96.1175 231.621 87.6085C232.827 71.392 235.297 53.9485 237.493 46.1327C237.526 46.0174 237.561 45.9036 237.595 45.7883C233.029 36.3185 224.988 32.0384 217.631 36.0879C208.588 41.0641 204.002 56.7412 207.388 71.103C210.775 85.4649 232.484 128.837 238.696 125.418C238.693 125.418 239.054 121.081 239.51 114.492Z" fill="#98619C"/>
<path d="M271.056 50.346C266.56 66.3504 235.193 118.912 235.193 118.912C229.109 118.15 234.487 62.3379 238.983 46.3335C243.48 30.329 254.304 18.2531 263.161 19.3605C272.018 20.4693 275.552 34.3415 271.056 50.346Z" fill="#98619C"/>
<path d="M314.072 86.7674C313.54 81.4624 310.081 77.8399 304.971 76.3112C302.413 82.3506 297.831 88.5765 291.842 93.5312C283.401 100.513 259.346 114.028 245.485 119.292C244.497 120.392 243.625 121.673 242.674 122.839C242.6 122.93 242.523 123.015 242.449 123.105C257.928 122.739 281.965 118.604 291.046 115.066C304.795 109.708 315.103 97.0385 314.072 86.7674Z" fill="#98619C"/>
<path d="M299.812 57.1896C291.939 66.8671 280.68 79.6747 269.634 91.4119C253.518 108.538 245.041 115.968 240.445 119.161C252.649 116.008 282.092 99.592 291.133 92.1136C302.291 82.8858 308.318 69.1844 304.594 61.5124C303.571 59.3987 301.91 57.9668 299.812 57.1896Z" fill="#B97EB6"/>
<path d="M300.656 55.4587C301.053 55.6096 301.439 55.7804 301.805 55.9726C303.658 56.9462 305.074 58.4237 306.015 60.3623C307.111 62.6212 307.453 65.3455 307.145 68.3076C317.879 55.5015 323.244 42.116 319.413 35.9443C318.517 34.4981 317.177 33.5601 315.496 33.0847C313.206 37.6523 310.388 42.3736 307.08 47.0622C305.469 49.3425 303.277 52.2021 300.656 55.4587Z" fill="#88328F"/>
<path d="M281.869 25.3315C268.553 44.1984 235.195 118.912 235.195 118.912C239.763 122.85 292.636 64.9655 305.951 46.0987C319.267 27.2318 324.67 7.2874 318.02 1.55261C311.37 -4.18218 295.185 6.46468 281.869 25.3315Z" fill="#88328F"/>
<path d="M229.816 84.5626C229.816 84.5626 230.244 85.1206 230.815 86.1597C231.105 86.6764 231.428 87.3155 231.766 88.057C232.106 88.7986 232.449 89.6483 232.79 90.5863C233.475 92.4609 234.096 94.7042 234.572 97.1652C234.806 98.3979 235.005 99.6832 235.159 101.003C235.301 102.328 235.422 103.677 235.479 105.048C235.528 106.421 235.56 107.792 235.512 109.171C235.473 110.545 235.392 111.901 235.243 113.238C235.173 113.904 235.096 114.559 235.005 115.201C234.915 115.846 234.799 116.485 234.685 117.102C234.57 117.722 234.447 118.324 234.319 118.904C234.18 119.492 234.032 120.063 233.878 120.608C233.717 121.155 233.578 121.674 233.42 122.168C233.249 122.666 233.085 123.143 232.913 123.586C232.566 124.474 232.279 125.227 231.939 125.861C231.306 127.113 230.855 127.776 230.855 127.776C230.855 127.776 230.587 127.063 230.278 125.907C230.137 125.335 229.902 124.632 229.702 123.846C229.508 123.064 229.287 122.18 229.048 121.216C228.933 120.736 228.832 120.237 228.728 119.72C228.613 119.201 228.502 118.664 228.401 118.112C228.295 117.559 228.206 116.994 228.112 116.412C228.009 115.83 227.92 115.234 227.837 114.627C227.68 113.414 227.518 112.153 227.409 110.864C227.306 109.576 227.201 108.255 227.151 106.93C227.046 104.274 227.047 101.585 227.205 99.0156C227.35 96.4492 227.636 94.0067 227.999 91.8745C228.358 89.7437 228.792 87.9232 229.159 86.628C229.518 85.3341 229.816 84.5626 229.816 84.5626Z" fill="#76945A"/>
<path d="M252.446 86.6834C252.446 86.6834 252.428 87.4862 252.25 88.817C252.164 89.4846 252.036 90.2831 251.865 91.1869C251.693 92.0894 251.471 93.0943 251.2 94.176C250.66 96.3396 249.894 98.7963 248.922 101.351C247.955 103.911 246.767 106.561 245.457 109.149C244.138 111.733 242.693 114.254 241.191 116.543C239.694 118.835 238.155 120.903 236.719 122.617C236 123.473 235.317 124.246 234.685 124.918C234.052 125.59 233.48 126.165 232.987 126.628C232.009 127.557 231.367 128.047 231.367 128.047C231.367 128.047 231.384 127.244 231.559 125.912C231.643 125.243 231.77 124.444 231.939 123.54C232.11 122.636 232.332 121.633 232.601 120.55C233.142 118.386 233.908 115.93 234.88 113.375C235.848 110.817 237.038 108.168 238.355 105.582C239.678 103 241.126 100.479 242.629 98.19C244.128 95.8983 245.667 93.8302 247.103 92.1164C247.82 91.2595 248.503 90.4866 249.134 89.8134C249.766 89.1415 250.338 88.5665 250.829 88.1025C251.805 87.173 252.446 86.6834 252.446 86.6834Z" fill="#76945A"/>
<path d="M262.364 107.479C262.364 107.479 262.015 108.141 261.336 109.137C260.999 109.64 260.578 110.222 260.084 110.864C259.59 111.504 259.019 112.196 258.383 112.919C257.112 114.365 255.566 115.904 253.841 117.386C252.119 118.873 250.209 120.284 248.241 121.561C246.272 122.827 244.243 123.955 242.273 124.849C240.306 125.748 238.405 126.43 236.721 126.885C235.878 127.112 235.095 127.292 234.389 127.425C233.682 127.554 233.057 127.646 232.532 127.697C231.485 127.808 230.848 127.778 230.848 127.778C230.848 127.778 231.197 127.115 231.873 126.115C232.209 125.611 232.63 125.028 233.122 124.385C233.616 123.743 234.187 123.051 234.822 122.326C236.093 120.879 237.637 119.34 239.364 117.861C241.087 116.377 242.998 114.966 244.968 113.696C246.94 112.435 248.97 111.309 250.94 110.418C252.909 109.522 254.81 108.84 256.494 108.383C257.335 108.155 258.118 107.973 258.826 107.842C259.532 107.711 260.158 107.62 260.682 107.567C261.728 107.452 262.364 107.479 262.364 107.479Z" fill="#76945A"/>
<path d="M253.707 123.95C253.707 123.95 253.617 124.037 253.449 124.177C253.281 124.309 253.035 124.53 252.721 124.756C252.093 125.226 251.198 125.824 250.124 126.401C249.051 126.981 247.799 127.547 246.458 128.007C245.117 128.474 243.688 128.831 242.259 129.076C240.83 129.314 239.402 129.437 238.064 129.42C237.395 129.413 236.749 129.376 236.135 129.311C235.522 129.25 234.943 129.146 234.409 129.042C233.34 128.821 232.449 128.521 231.827 128.259C231.515 128.135 231.27 127.996 231.104 127.92C230.937 127.836 230.848 127.778 230.848 127.778C230.848 127.778 230.937 127.691 231.105 127.55C231.273 127.418 231.519 127.196 231.834 126.968C232.462 126.497 233.357 125.896 234.43 125.318C234.967 125.035 235.549 124.736 236.164 124.47C236.779 124.199 237.426 123.945 238.098 123.714C239.439 123.249 240.868 122.894 242.297 122.654C243.726 122.42 245.154 122.298 246.492 122.318C247.83 122.329 249.078 122.477 250.147 122.698C251.216 122.917 252.107 123.216 252.729 123.476C253.041 123.599 253.286 123.738 253.452 123.814C253.619 123.893 253.707 123.95 253.707 123.95Z" fill="#76945A"/>
<path d="M221.033 106.78C221.033 106.78 221.13 106.821 221.294 106.911C221.45 107.005 221.703 107.127 221.981 107.315C222.549 107.681 223.299 108.245 224.086 109.001C224.875 109.755 225.703 110.7 226.473 111.795C227.248 112.886 227.958 114.132 228.576 115.44C229.188 116.752 229.707 118.132 230.084 119.499C230.275 120.183 230.433 120.86 230.558 121.521C230.688 122.178 230.772 122.827 230.843 123.429C230.975 124.642 230.99 125.72 230.957 126.504C230.947 126.891 230.904 127.22 230.89 127.435C230.87 127.653 230.849 127.776 230.849 127.776C230.849 127.776 230.751 127.735 230.587 127.647C230.429 127.553 230.175 127.43 229.896 127.244C229.327 126.88 228.574 126.317 227.787 125.562C227.398 125.18 226.984 124.762 226.586 124.292C226.184 123.824 225.786 123.313 225.402 122.766C224.629 121.674 223.92 120.427 223.305 119.117C222.696 117.801 222.179 116.422 221.803 115.053C221.422 113.688 221.177 112.336 221.046 111.121C220.912 109.909 220.896 108.833 220.928 108.05C220.936 107.663 220.979 107.334 220.992 107.122C221.013 106.903 221.033 106.78 221.033 106.78Z" fill="#76945A"/>
<path d="M430.86 331.869C430.86 331.869 429.098 333.08 425.794 335.355C422.5 337.641 417.668 340.993 411.519 345.26C408.469 347.426 405.093 349.826 401.417 352.438C397.769 355.09 393.831 357.962 389.652 361.071C381.332 367.336 372.06 374.554 362.337 382.876C352.675 391.259 342.557 400.747 332.792 411.614C323.039 422.471 313.659 434.751 305.796 448.507C304.848 450.245 303.898 451.989 302.943 453.741C301.987 455.491 300.994 457.23 300.204 459.079C299.363 460.901 298.519 462.73 297.672 464.563L296.399 467.317C295.985 468.187 295.611 469.199 295.214 470.136C292.177 477.643 289.614 485.512 287.406 493.537C285.209 501.567 283.274 509.784 281.612 518.075C279.834 526.443 278.321 534.754 276.858 543.139C273.96 559.929 271.554 576.829 269.169 593.506C266.782 610.18 264.393 626.63 261.652 642.529C258.902 658.424 255.884 673.79 252.176 688.218C251.347 691.845 250.283 695.371 249.337 698.868C248.853 700.615 248.372 702.347 247.895 704.066C247.428 705.789 246.843 707.465 246.329 709.145C245.26 712.496 244.249 715.802 243.182 719.026C242.029 722.226 240.897 725.366 239.79 728.442C239.513 729.21 239.236 729.976 238.962 730.738L238.523 731.935L238.089 733.032C237.498 734.502 236.967 735.912 236.345 737.388C235.722 738.861 235.107 740.317 234.499 741.755C233.863 743.165 233.235 744.56 232.616 745.935C230.068 751.419 227.387 756.536 224.641 761.251C221.868 765.955 218.98 770.225 216.128 774.071C213.204 777.871 210.359 781.277 207.534 784.158C201.927 789.959 196.82 793.926 193.182 796.385C192.301 797.041 191.458 797.532 190.745 797.977C190.029 798.418 189.427 798.789 188.943 799.088C187.972 799.685 187.471 799.992 187.471 799.992L180.125 786.74C180.125 786.74 180.54 786.498 181.346 786.029C181.75 785.795 182.251 785.505 182.848 785.16C183.443 784.813 184.147 784.439 184.888 783.909C187.942 781.968 192.272 778.801 197.215 773.971C199.703 771.579 202.258 768.679 204.932 765.407C207.545 762.075 210.239 758.33 212.881 754.122C215.499 749.898 218.105 745.25 220.627 740.195C221.243 738.921 221.868 737.631 222.5 736.326C223.097 735.018 223.7 733.695 224.311 732.356C224.921 731.021 225.528 729.539 226.148 728.112L226.612 727.025L227.017 726.002C227.3 725.278 227.586 724.549 227.872 723.817C229.021 720.888 230.194 717.896 231.389 714.848C232.505 711.767 233.57 708.596 234.693 705.386C235.235 703.773 235.846 702.17 236.345 700.511C236.854 698.855 237.366 697.186 237.883 695.503C238.898 692.133 240.025 688.742 240.933 685.222C244.936 671.269 248.317 656.264 251.47 640.634C254.613 624.998 257.443 608.707 260.288 592.111C263.135 575.513 266.02 558.601 269.409 541.756C271.12 533.331 272.911 524.852 274.905 516.6C276.826 508.232 279.013 499.97 281.486 491.819C283.975 483.672 286.811 475.701 290.18 467.992C290.616 467.04 290.979 466.126 291.471 465.148L292.859 462.346C293.783 460.481 294.704 458.623 295.622 456.772C296.49 454.896 297.558 453.135 298.588 451.364C299.619 449.594 300.645 447.831 301.666 446.075C310.119 432.194 320.022 419.963 330.206 409.236C340.401 398.503 350.868 389.227 360.816 381.065C370.822 372.969 380.32 365.99 388.828 359.945C393.098 356.947 397.122 354.18 400.845 351.628C404.596 349.117 408.04 346.81 411.151 344.726C417.418 340.63 422.341 337.411 425.699 335.218C429.065 333.032 430.86 331.869 430.86 331.869Z" fill="#76945A"/>
<path d="M425.826 540.549C425.826 540.549 424.642 540.583 422.419 540.647C421.864 540.66 421.245 540.674 420.561 540.691C419.889 540.764 419.154 540.842 418.361 540.927C417.575 541.011 416.731 541.101 415.83 541.196C414.933 541.307 413.98 541.512 412.976 541.68C408.958 542.324 404.198 543.702 398.984 545.744C393.778 547.818 388.167 550.767 382.503 554.632C376.838 558.495 371.136 563.299 365.723 568.952C365.05 569.661 364.372 570.376 363.69 571.094C363.037 571.84 362.381 572.59 361.719 573.345C360.365 574.824 359.143 576.448 357.856 578.04L357.376 578.641L357.188 578.889L356.95 579.212L355.997 580.511C355.359 581.375 354.719 582.242 354.075 583.115C352.911 584.851 351.688 586.494 350.54 588.339C349.958 589.243 349.374 590.151 348.787 591.063C348.222 591.991 347.656 592.923 347.087 593.859C345.922 595.709 344.85 597.65 343.733 599.571C341.571 603.468 339.439 607.45 337.381 611.54C333.264 619.71 329.321 628.219 325.346 636.785C323.33 641.062 321.313 645.346 319.235 649.615L317.664 652.825L316.083 655.965C314.978 658.071 313.895 660.211 312.76 662.28C308.291 670.608 303.42 678.628 298.043 685.988C295.385 689.683 292.555 693.185 289.67 696.507C286.711 699.775 283.752 702.922 280.609 705.73C279.826 706.433 279.049 707.131 278.276 707.824C277.486 708.497 276.675 709.138 275.885 709.787C275.083 710.425 274.322 711.092 273.506 711.687C272.691 712.281 271.882 712.869 271.081 713.451C269.504 714.646 267.821 715.648 266.224 716.693C265.823 716.951 265.423 717.207 265.026 717.463C264.619 717.702 264.213 717.939 263.81 718.175C263.023 718.632 262.272 719.08 261.453 719.517C255.071 723.046 249.273 725.747 244.33 728.556C239.425 731.365 235.35 734.111 232.372 736.845C229.392 739.571 227.457 742.146 226.243 743.982C225.14 745.899 224.551 746.921 224.551 746.921C224.551 746.921 224.646 746.641 224.831 746.099C225.028 745.561 225.268 744.732 225.691 743.693C226.615 741.666 228.075 738.636 230.808 735.364C233.498 732.073 237.328 728.533 242.077 725.08C244.445 723.356 247.012 721.585 249.712 719.795C252.393 717.996 255.304 716.165 258.1 714.215C258.803 713.745 259.54 713.2 260.279 712.686C260.635 712.434 260.993 712.18 261.354 711.925C261.702 711.654 262.053 711.384 262.404 711.111C263.802 710.008 265.271 708.96 266.637 707.716C267.335 707.117 268.038 706.513 268.747 705.904C269.458 705.3 270.122 704.621 270.818 703.978C271.505 703.322 272.21 702.677 272.896 702C273.563 701.304 274.237 700.602 274.914 699.896C277.627 697.082 280.235 694.006 282.8 690.786C285.285 687.494 287.827 684.133 290.157 680.509C292.536 676.928 294.807 673.168 297.038 669.319C298.118 667.367 299.243 665.433 300.284 663.425C301.371 661.446 302.424 659.432 303.464 657.397C304.525 655.367 305.505 653.32 306.535 651.26C307.542 649.165 308.554 647.066 309.566 644.961C311.582 640.757 313.549 636.479 315.543 632.204C319.575 623.663 323.607 615.038 328.076 606.713C332.486 598.368 337.326 590.319 342.653 582.921C343.935 581.064 345.415 579.24 346.768 577.431C347.458 576.586 348.146 575.745 348.829 574.909L349.859 573.669L350.434 572.987L350.991 572.37C352.483 570.731 353.907 569.07 355.459 567.562C356.219 566.794 356.973 566.031 357.723 565.274C358.511 564.554 359.293 563.839 360.071 563.129C366.302 557.473 372.825 552.851 379.241 549.311C385.651 545.757 391.969 543.353 397.689 541.834C403.404 540.284 408.541 539.631 412.753 539.552C413.807 539.528 414.794 539.46 415.733 539.477C416.671 539.531 417.552 539.582 418.371 539.629C419.182 539.678 419.932 539.723 420.62 539.766C421.296 539.863 421.909 539.951 422.459 540.031C424.655 540.368 425.826 540.549 425.826 540.549Z" fill="#76945A"/>
<path d="M0.925781 480.808C0.925781 480.808 1.3001 482.226 2.00183 484.883C2.69217 487.539 3.70433 491.436 4.99106 496.395C5.65435 498.865 6.38877 501.599 7.18729 504.576C8.06693 507.528 8.87108 510.756 9.89591 514.154C10.4026 515.852 10.9265 517.605 11.4659 519.41C12.0068 521.212 12.6402 523.041 13.2465 524.928C13.5526 525.872 13.863 526.826 14.1761 527.792C14.512 528.749 14.8508 529.718 15.1938 530.699C15.9012 532.65 16.5516 534.674 17.3473 536.687C18.1301 538.701 18.9301 540.756 19.7457 542.852C20.6368 544.907 21.5435 547.002 22.4672 549.132C24.4158 553.333 26.4656 557.652 28.8995 561.888C33.6735 570.4 39.5719 578.825 46.8582 586.327C48.5848 588.299 50.6473 589.947 52.5788 591.755L54.0463 593.094L54.2298 593.262C54.2042 593.238 54.3396 593.35 54.3865 593.389L54.7921 593.722L55.6049 594.386C56.7009 595.267 57.6431 596.009 58.7647 596.838C63.0947 600.077 67.7747 603.095 72.5928 606.145C75.0311 607.669 77.4778 609.201 79.9317 610.738L83.6539 613.098L85.5128 614.314L86.4424 614.927L87.4444 615.625C89.83 617.297 92.2184 618.974 94.6096 620.651C97.0038 622.408 99.4036 624.326 101.798 626.159C111.171 633.706 119.903 641.876 127.844 650.587C129.784 652.799 131.717 655.004 133.639 657.197C135.508 659.435 137.268 661.744 139.07 663.991C140.904 666.216 142.523 668.583 144.2 670.879C145.03 672.033 145.856 673.183 146.678 674.329C147.497 675.476 148.227 676.68 149 677.846C155.251 687.131 160.401 696.67 164.781 705.908C169.245 715.119 172.5 724.245 175.315 732.676C175.939 734.811 176.549 736.902 177.146 738.946C177.443 739.967 177.738 740.974 178.028 741.971C178.306 742.971 178.516 743.978 178.754 744.961C179.652 748.906 180.623 752.629 181.238 756.186C182.59 763.334 182.912 769.761 182.401 774.986C182.172 777.601 181.658 779.9 181.125 781.852C180.533 783.798 179.908 785.399 179.309 786.651C178.997 787.268 178.721 787.815 178.484 788.286C178.206 788.734 177.973 789.113 177.786 789.416C177.412 790.02 177.218 790.331 177.218 790.331C177.218 790.331 177.362 789.994 177.641 789.341C177.778 789.016 177.95 788.612 178.153 788.132C178.32 787.64 178.512 787.069 178.731 786.423C179.148 785.129 179.54 783.499 179.852 781.573C180.091 779.632 180.314 777.404 180.252 774.899C180.162 769.892 179.106 763.862 177.208 757.134C175.213 750.377 172.564 742.845 169.414 734.791C168.594 732.789 167.696 730.769 166.818 728.698C165.931 726.631 165.058 724.516 164.001 722.435C162.995 720.337 161.971 718.203 160.932 716.035C159.849 713.892 158.662 711.76 157.51 709.576C152.796 700.899 147.408 691.976 141.093 683.279C134.819 674.562 127.858 665.906 120.138 657.71C112.392 649.562 103.984 641.732 95.1022 634.652C92.8618 632.922 90.7082 631.164 88.4037 629.448C86.021 627.758 83.6412 626.069 81.267 624.383L80.4798 623.828L79.5902 623.234L77.8068 622.05L74.2127 619.687C71.7787 618.107 69.3518 616.533 66.9335 614.964C62.0641 611.796 57.2119 608.495 52.6073 604.835C51.48 603.957 50.2402 602.925 49.1755 602.019L48.3813 601.331L47.9841 600.987L47.7393 600.776L47.54 600.585L45.9543 599.064C43.8677 597.018 41.6985 595.081 39.8723 592.862C32.1633 584.342 26.2633 574.925 21.7142 565.653C17.1821 556.355 13.8758 547.203 11.4261 538.65C8.9822 530.093 7.21283 522.164 5.89335 515.111C5.20444 511.59 4.65074 508.284 4.14402 505.228C3.68996 502.164 3.27298 499.352 2.89578 496.811C2.17982 491.725 1.72153 487.719 1.397 484.991C1.08812 482.266 0.925781 480.808 0.925781 480.808Z" fill="#76945A"/>
<path d="M276.454 502.173C277.382 503.411 278.218 504.756 278.961 506.187C279.923 502.765 280.878 499.846 281.804 497.631C283.472 493.641 285.423 489.928 287.561 486.581C285.944 484.532 283.997 483.232 281.788 482.902C276.531 482.118 271.071 487.01 267.164 495.033C270.602 496.188 273.791 498.616 276.454 502.173Z" fill="#88328F"/>
<path d="M269.155 582.375C268.322 585.201 267.768 587.025 267.656 587.389L267.317 588.499L266.157 588.562C265.868 588.578 265.572 588.552 265.279 588.484C263.774 588.139 261.607 586.751 258.155 579.018C256.077 574.361 253.796 567.968 251.56 560.533C247.3 546.359 243.967 530.917 243.632 523.815C243.626 523.71 243.626 523.606 243.623 523.501C235.523 516.106 225.497 513.763 219.047 518.483C211.118 524.285 211.595 538.559 220.111 550.366C228.627 562.172 266.574 595.907 272.02 591.923C272.02 591.924 270.922 588.126 269.155 582.375Z" fill="#98619C"/>
<path d="M280.817 521.828C281.501 536.37 266.067 586.904 266.067 586.904C259.329 587.265 245.973 538.28 245.29 523.739C244.607 509.197 252.005 496.982 261.817 496.454C271.627 495.926 280.134 507.287 280.817 521.828Z" fill="#98619C"/>
<path d="M339.087 546.009C336.706 541.528 331.785 538.986 325.82 538.523C325.162 544.154 322.409 550.286 317.725 555.557C311.122 562.984 290.126 578.654 277.165 585.509C276.49 586.622 275.997 587.872 275.384 589.034C275.335 589.126 275.284 589.212 275.234 589.302C291.593 586.396 315.779 578.812 324.24 574.243C337.05 567.325 343.697 554.686 339.087 546.009Z" fill="#98619C"/>
<path d="M313.785 522.912C308.709 532.568 301.099 545.486 293.348 557.447C282.041 574.899 275.552 582.719 271.75 586.239C283.668 581.479 309.411 562.41 316.484 554.454C325.212 544.635 326.946 531.823 320.357 525.835C318.544 524.187 316.285 523.23 313.785 522.912Z" fill="#B97EB6"/>
<path d="M314.094 521.28C314.568 521.344 315.037 521.427 315.491 521.531C317.797 522.06 319.811 523.095 321.477 524.608C323.417 526.372 324.711 528.661 325.397 531.264C332.45 518.434 333.587 506.005 327.397 501.327C325.948 500.233 324.201 499.648 322.247 499.52C321.368 503.838 319.984 508.379 318.062 512.972C317.127 515.205 315.77 518.035 314.094 521.28Z" fill="#88328F"/>
<path d="M283.783 498.468C276.052 516.952 266.07 586.905 266.07 586.905C272.281 589.534 308.797 530.814 316.528 512.33C324.258 493.846 323.193 475.758 314.151 471.93C305.109 468.102 291.512 479.984 283.783 498.468Z" fill="#88328F"/>
<path d="M248.596 558.211C248.596 558.211 249.243 558.62 250.206 559.42C250.692 559.817 251.254 560.312 251.867 560.896C252.482 561.478 253.138 562.153 253.823 562.903C255.194 564.403 256.621 566.232 257.971 568.272C258.641 569.294 259.293 570.368 259.907 571.48C260.512 572.597 261.102 573.74 261.63 574.912C262.151 576.087 262.655 577.263 263.075 578.459C263.503 579.649 263.881 580.832 264.179 582.007C264.332 582.592 264.474 583.17 264.596 583.738C264.722 584.307 264.816 584.878 264.905 585.43C264.995 585.983 265.069 586.522 265.132 587.045C265.184 587.574 265.221 588.091 265.244 588.586C265.26 589.083 265.29 589.554 265.29 590.007C265.278 590.465 265.267 590.903 265.234 591.313C265.169 592.136 265.12 592.833 264.975 593.437C264.73 594.623 264.476 595.269 264.476 595.269C264.476 595.269 263.947 594.698 263.223 593.754C262.877 593.285 262.387 592.718 261.905 592.075C261.431 591.433 260.894 590.708 260.311 589.918C260.023 589.524 259.746 589.111 259.458 588.683C259.158 588.255 258.856 587.81 258.56 587.352C258.26 586.894 257.971 586.423 257.67 585.937C257.362 585.453 257.063 584.955 256.767 584.445C256.186 583.426 255.581 582.367 255.024 581.274C254.475 580.181 253.913 579.062 253.405 577.928C252.384 575.658 251.466 573.34 250.756 571.1C250.032 568.864 249.503 566.712 249.16 564.814C248.814 562.918 248.653 561.277 248.601 560.099C248.544 558.924 248.596 558.211 248.596 558.211Z" fill="#76945A"/>
<path d="M273.428 556.25C273.428 556.25 273.683 556.944 273.949 558.122C274.087 558.711 274.224 559.42 274.351 560.227C274.476 561.034 274.583 561.936 274.664 562.914C274.827 564.868 274.852 567.113 274.691 569.477C274.537 571.844 274.177 574.325 273.666 576.775C273.145 579.222 272.469 581.637 271.652 583.861C270.842 586.085 269.908 588.125 268.966 589.843C268.493 590.701 268.029 591.481 267.587 592.166C267.141 592.851 266.729 593.441 266.363 593.922C265.64 594.887 265.123 595.416 265.123 595.416C265.123 595.416 264.865 594.721 264.598 593.544C264.458 592.954 264.322 592.244 264.192 591.437C264.065 590.63 263.959 589.728 263.875 588.75C263.711 586.796 263.685 584.551 263.849 582.187C264.006 579.821 264.367 577.339 264.884 574.89C265.41 572.445 266.089 570.031 266.909 567.808C267.722 565.583 268.654 563.543 269.597 561.827C270.068 560.968 270.53 560.188 270.973 559.502C271.416 558.818 271.828 558.227 272.193 557.744C272.914 556.779 273.428 556.25 273.428 556.25Z" fill="#76945A"/>
<path d="M291.103 572.508C291.103 572.508 290.958 573.135 290.577 574.108C290.389 574.597 290.14 575.169 289.834 575.806C289.526 576.441 289.155 577.131 288.725 577.861C287.865 579.32 286.746 580.904 285.416 582.468C284.089 584.038 282.537 585.574 280.879 587.002C279.214 588.422 277.439 589.733 275.647 590.834C273.859 591.938 272.067 592.843 270.43 593.518C269.61 593.854 268.839 594.142 268.131 594.372C267.423 594.603 266.788 594.785 266.245 594.917C265.169 595.188 264.48 595.269 264.48 595.269C264.48 595.269 264.624 594.638 265.004 593.665C265.191 593.174 265.438 592.601 265.744 591.965C266.05 591.329 266.422 590.639 266.85 589.908C267.709 588.449 268.829 586.865 270.161 585.301C271.489 583.734 273.042 582.198 274.705 580.775C276.374 579.358 278.151 578.049 279.944 576.95C281.733 575.848 283.525 574.942 285.162 574.267C285.981 573.93 286.752 573.642 287.459 573.41C288.167 573.178 288.802 572.996 289.342 572.862C290.417 572.59 291.103 572.508 291.103 572.508Z" fill="#76945A"/>
<path d="M287.516 588.146C287.516 588.146 287.451 588.236 287.32 588.384C287.186 588.526 286.998 588.757 286.742 589.006C286.234 589.516 285.485 590.18 284.539 590.858C283.594 591.537 282.453 592.234 281.182 592.855C279.914 593.483 278.514 594.028 277.076 594.479C275.635 594.923 274.157 595.269 272.726 595.478C272.012 595.585 271.31 595.66 270.635 595.706C269.96 595.756 269.309 595.763 268.704 595.763C267.49 595.751 266.439 595.642 265.686 595.521C265.312 595.467 265.004 595.387 264.801 595.349C264.594 595.304 264.48 595.269 264.48 595.269C264.48 595.269 264.546 595.179 264.677 595.03C264.811 594.887 264.997 594.655 265.253 594.406C265.76 593.895 266.509 593.229 267.454 592.55C267.929 592.216 268.446 591.861 269.01 591.528C269.572 591.192 270.175 590.865 270.81 590.553C272.078 589.927 273.48 589.383 274.919 588.936C276.361 588.496 277.84 588.152 279.272 587.944C280.701 587.731 282.081 587.648 283.295 587.66C284.509 587.669 285.559 587.778 286.311 587.897C286.684 587.95 286.993 588.03 287.196 588.067C287.403 588.112 287.516 588.146 287.516 588.146Z" fill="#76945A"/>
<path d="M246.848 578.822C246.848 578.822 246.966 578.84 247.171 578.892C247.37 578.947 247.682 579.01 248.042 579.125C248.771 579.344 249.764 579.704 250.86 580.225C251.958 580.743 253.165 581.419 254.357 582.234C255.556 583.044 256.737 583.999 257.843 585.022C258.945 586.051 259.968 587.151 260.838 588.267C261.274 588.824 261.675 589.382 262.034 589.93C262.397 590.475 262.707 591.02 262.989 591.527C263.544 592.55 263.928 593.476 264.162 594.157C264.284 594.493 264.351 594.784 264.409 594.97C264.462 595.161 264.482 595.272 264.482 595.272C264.482 595.272 264.364 595.253 264.159 595.203C263.958 595.149 263.646 595.085 263.286 594.971C262.556 594.752 261.561 594.394 260.464 593.875C259.918 593.612 259.335 593.322 258.75 592.983C258.162 592.647 257.564 592.274 256.966 591.867C255.769 591.056 254.589 590.101 253.486 589.073C252.389 588.041 251.365 586.939 250.497 585.822C249.625 584.709 248.902 583.586 248.346 582.562C247.79 581.54 247.406 580.615 247.171 579.936C247.048 579.602 246.98 579.311 246.922 579.125C246.868 578.931 246.848 578.822 246.848 578.822Z" fill="#76945A"/>
<path d="M376.147 354.993C376.275 356.389 376.282 357.825 376.178 359.283C378.545 357.097 380.668 355.295 382.434 354.024C385.615 351.735 388.885 349.792 392.123 348.222C391.847 345.872 390.96 343.943 389.41 342.641C385.722 339.541 379.183 340.728 372.359 345.071C374.467 347.593 375.778 350.982 376.147 354.993Z" fill="#88328F"/>
<path d="M332.455 413.47C330.471 415.259 329.177 416.402 328.918 416.631L328.129 417.328L327.204 416.826C326.973 416.701 326.757 416.54 326.563 416.349C325.566 415.37 324.549 413.269 325.553 405.658C326.158 401.075 327.43 395.055 329.232 388.252C332.668 375.283 337.421 361.775 340.532 356.132C340.578 356.048 340.628 355.968 340.675 355.885C337.928 346.33 331.296 339.764 324.074 340.348C315.198 341.065 308.791 352.316 309.766 365.476C310.741 378.635 324.04 422.697 330.137 422.205C330.136 422.205 331.09 418.752 332.455 413.47Z" fill="#98619C"/>
<path d="M370.191 372.244C363.819 383.799 327.918 415.504 327.918 415.504C322.542 412.586 335.474 368.415 341.846 356.859C348.218 345.304 359.731 339.38 367.558 343.629C375.385 347.877 376.564 360.689 370.191 372.244Z" fill="#98619C"/>
<path d="M403.723 418.568C404.01 413.976 401.415 409.679 397.028 406.491C393.847 410.527 388.813 413.956 382.694 415.804C374.069 418.407 350.417 420.547 337.154 419.69C336.104 420.229 335.131 420.961 334.105 421.569C334.025 421.616 333.944 421.658 333.863 421.704C347.876 427.222 370.155 432.842 378.858 433.329C392.034 434.066 403.166 427.457 403.723 418.568Z" fill="#98619C"/>
<path d="M395.14 388.723C386.638 393.771 374.629 400.137 362.969 405.698C345.953 413.811 337.231 416.772 332.625 417.686C344.087 419.666 373.019 417.153 382.257 414.365C393.657 410.925 401.075 401.851 398.828 394.1C398.21 391.965 396.919 390.156 395.14 388.723Z" fill="#B97EB6"/>
<path d="M396.148 387.608C396.484 387.881 396.808 388.169 397.109 388.465C398.639 389.968 399.704 391.723 400.272 393.682C400.934 395.965 400.847 398.346 400.141 400.682C411.676 394.12 418.453 385.06 415.892 378.51C415.293 376.977 414.221 375.696 412.772 374.67C410.045 377.589 406.819 380.437 403.157 383.073C401.374 384.356 398.982 385.897 396.148 387.608Z" fill="#88328F"/>
<path d="M383.567 355.606C368.825 366.215 327.922 415.504 327.922 415.504C331.47 420.481 387.539 392.459 402.281 381.852C417.023 371.244 424.783 356.769 419.616 349.523C414.449 342.275 398.309 344.999 383.567 355.606Z" fill="#88328F"/>
<path d="M328.035 385.052C328.035 385.052 328.341 385.675 328.705 386.749C328.892 387.287 329.091 387.936 329.287 388.676C329.487 389.417 329.673 390.25 329.845 391.154C330.191 392.963 330.427 395.053 330.5 397.269C330.533 398.376 330.527 399.516 330.473 400.666C330.409 401.816 330.324 402.979 330.176 404.135C330.021 405.289 329.851 406.437 329.608 407.56C329.374 408.681 329.104 409.775 328.776 410.824C328.617 411.349 328.452 411.861 328.277 412.359C328.103 412.859 327.904 413.344 327.712 413.813C327.518 414.281 327.32 414.734 327.121 415.166C326.91 415.6 326.694 416.016 326.476 416.41C326.253 416.802 326.052 417.179 325.837 417.529C325.611 417.878 325.394 418.211 325.175 418.513C324.734 419.118 324.367 419.633 323.967 420.03C323.215 420.83 322.711 421.207 322.711 421.207C322.711 421.207 322.573 420.515 322.462 419.444C322.418 418.917 322.309 418.246 322.242 417.521C322.18 416.799 322.109 415.986 322.034 415.098C322 414.657 321.981 414.207 321.961 413.74C321.933 413.267 321.91 412.781 321.899 412.285C321.884 411.789 321.884 411.288 321.883 410.771C321.874 410.251 321.88 409.723 321.893 409.191C321.928 408.129 321.963 407.023 322.052 405.916C322.148 404.811 322.243 403.678 322.39 402.562C322.679 400.325 323.069 398.099 323.584 396.032C324.086 393.962 324.698 392.049 325.335 390.419C325.968 388.791 326.623 387.447 327.14 386.512C327.655 385.579 328.035 385.052 328.035 385.052Z" fill="#76945A"/>
<path d="M348.141 395.317C348.141 395.317 348.008 395.975 347.655 397.01C347.482 397.531 347.251 398.143 346.967 398.826C346.68 399.509 346.335 400.256 345.935 401.049C345.133 402.636 344.087 404.381 342.84 406.131C341.598 407.886 340.143 409.632 338.586 411.282C337.022 412.924 335.353 414.467 333.668 415.798C331.985 417.132 330.297 418.265 328.755 419.143C327.982 419.582 327.254 419.965 326.587 420.283C325.919 420.601 325.318 420.861 324.807 421.059C323.791 421.46 323.141 421.624 323.141 421.624C323.141 421.624 323.272 420.965 323.623 419.929C323.795 419.408 324.026 418.794 324.309 418.11C324.594 417.427 324.94 416.678 325.34 415.884C326.141 414.297 327.187 412.552 328.434 410.802C329.678 409.049 331.134 407.304 332.696 405.658C334.264 404.02 335.934 402.477 337.622 401.149C339.306 399.817 340.993 398.684 342.536 397.804C343.307 397.364 344.034 396.981 344.702 396.662C345.37 396.344 345.967 396.083 346.478 395.884C347.492 395.482 348.141 395.317 348.141 395.317Z" fill="#76945A"/>
<path d="M354.077 416.261C354.077 416.261 353.668 416.677 352.912 417.247C352.535 417.536 352.071 417.861 351.533 418.205C350.994 418.55 350.38 418.907 349.701 419.266C348.344 419.984 346.729 420.676 344.958 421.254C343.189 421.838 341.261 422.287 339.303 422.603C337.343 422.911 335.35 423.082 333.444 423.08C331.54 423.085 329.725 422.934 328.141 422.677C327.348 422.548 326.615 422.403 325.96 422.246C325.304 422.088 324.726 421.927 324.245 421.772C323.286 421.47 322.715 421.207 322.715 421.207C322.715 421.207 323.125 420.789 323.881 420.216C324.258 419.926 324.72 419.602 325.258 419.254C325.796 418.908 326.411 418.551 327.089 418.191C328.445 417.471 330.061 416.779 331.832 416.204C333.601 415.623 335.528 415.175 337.488 414.865C339.45 414.563 341.444 414.395 343.349 414.398C345.254 414.395 347.069 414.546 348.653 414.802C349.444 414.93 350.177 415.074 350.834 415.23C351.49 415.387 352.066 415.546 352.547 415.702C353.508 416 354.077 416.261 354.077 416.261Z" fill="#76945A"/>
<path d="M343.888 426.639C343.888 426.639 343.794 426.677 343.623 426.73C343.452 426.775 343.197 426.866 342.881 426.936C342.248 427.089 341.354 427.247 340.301 427.321C339.249 427.396 338.037 427.393 336.761 427.271C335.484 427.154 334.143 426.911 332.819 426.576C331.496 426.236 330.19 425.8 328.986 425.284C328.384 425.026 327.806 424.753 327.262 424.468C326.719 424.186 326.211 423.883 325.744 423.596C324.811 423.011 324.051 422.427 323.527 421.976C323.264 421.757 323.063 421.549 322.925 421.423C322.787 421.291 322.715 421.21 322.715 421.21C322.715 421.21 322.809 421.172 322.981 421.119C323.152 421.072 323.407 420.982 323.723 420.911C324.356 420.757 325.251 420.598 326.303 420.522C326.828 420.49 327.396 420.461 327.99 420.473C328.583 420.48 329.205 420.513 329.843 420.574C331.12 420.692 332.461 420.937 333.784 421.275C335.107 421.62 336.412 422.055 337.616 422.575C338.822 423.089 339.925 423.68 340.857 424.265C341.789 424.848 342.55 425.43 343.073 425.88C343.337 426.098 343.537 426.306 343.677 426.431C343.816 426.558 343.888 426.639 343.888 426.639Z" fill="#76945A"/>
<path d="M316.901 400.138C316.901 400.138 316.982 400.208 317.117 400.345C317.246 400.481 317.456 400.679 317.68 400.938C318.138 401.453 318.734 402.203 319.335 403.124C319.937 404.047 320.548 405.14 321.083 406.336C321.624 407.53 322.084 408.828 322.452 410.143C322.815 411.46 323.083 412.796 323.225 414.07C323.298 414.706 323.342 415.328 323.36 415.922C323.382 416.516 323.363 417.083 323.34 417.609C323.283 418.662 323.141 419.56 322.997 420.196C322.932 420.514 322.847 420.77 322.802 420.941C322.753 421.113 322.716 421.208 322.716 421.208C322.716 421.208 322.633 421.139 322.498 421.002C322.37 420.865 322.158 420.669 321.934 420.41C321.473 419.895 320.877 419.146 320.275 418.224C319.978 417.761 319.665 417.26 319.375 416.72C319.08 416.182 318.796 415.61 318.528 415.012C317.989 413.818 317.53 412.52 317.166 411.204C316.807 409.885 316.54 408.549 316.4 407.275C316.253 406.001 316.229 404.791 316.286 403.737C316.342 402.683 316.483 401.786 316.623 401.15C316.688 400.833 316.773 400.577 316.816 400.406C316.865 400.232 316.901 400.138 316.901 400.138Z" fill="#76945A"/>
<path d="M483.435 279.211C483.248 280.394 482.944 281.612 482.539 282.85C485.072 280.956 487.308 279.392 489.12 278.283C492.384 276.287 495.651 274.585 498.811 273.199C499.075 271.209 498.718 269.587 497.648 268.507C495.103 265.938 489.15 267.054 482.27 270.853C483.563 272.959 483.976 275.813 483.435 279.211Z" fill="#88328F"/>
<path d="M432.786 329.564C430.672 331.116 429.3 332.108 429.024 332.306L428.187 332.909L427.489 332.499C427.316 332.397 427.162 332.264 427.034 332.105C426.375 331.289 425.942 329.523 428.455 323.049C429.968 319.149 432.37 314.021 435.406 308.216C441.189 297.154 448.238 285.61 452.162 280.769C452.221 280.698 452.28 280.629 452.339 280.557C452.001 272.494 447.637 267.031 441.219 267.646C433.331 268.402 425.33 278.056 423.346 289.209C421.363 300.361 423.469 337.535 428.886 337.016C428.887 337.016 430.462 334.069 432.786 329.564Z" fill="#98619C"/>
<path d="M474.532 293.951C466.494 303.864 428.394 331.366 428.394 331.366C424.339 328.979 445.109 291.277 453.148 281.366C461.188 271.455 472.491 266.235 478.396 269.711C484.299 273.186 482.57 284.039 474.532 293.951Z" fill="#98619C"/>
<path d="M493.777 332.71C495.015 328.808 493.68 325.204 490.543 322.571C486.903 326.05 481.779 329.043 476.05 330.713C467.976 333.064 446.91 335.272 435.539 334.765C434.509 335.241 433.504 335.877 432.479 336.409C432.399 336.451 432.319 336.489 432.238 336.529C443.259 340.98 461.459 345.379 468.937 345.648C480.257 346.056 491.378 340.262 493.777 332.71Z" fill="#98619C"/>
<path d="M492.721 307.523C484.227 311.949 472.395 317.551 461.039 322.463C444.469 329.631 436.234 332.287 432.023 333.14C441.584 334.63 467.33 332.018 475.977 329.499C486.65 326.39 495.065 318.567 494.776 312.025C494.696 310.223 493.962 308.709 492.721 307.523Z" fill="#B97EB6"/>
<path d="M493.844 306.56C494.077 306.786 494.298 307.025 494.497 307.271C495.506 308.521 496.056 309.993 496.13 311.645C496.215 313.571 495.627 315.595 494.509 317.589C505.97 311.829 513.824 304.027 513.002 298.512C512.81 297.221 512.151 296.152 511.111 295.305C508.106 297.827 504.684 300.298 500.925 302.596C499.096 303.713 496.681 305.061 493.844 306.56Z" fill="#88328F"/>
<path d="M489.771 279.609C474.646 288.856 428.402 331.365 428.402 331.365C430.424 335.531 485.3 310.82 500.425 301.572C515.55 292.324 525.427 279.913 522.485 273.848C519.544 267.783 504.897 270.363 489.771 279.609Z" fill="#88328F"/>
<path d="M435.057 305.519C435.057 305.519 435.189 306.043 435.276 306.948C435.323 307.401 435.357 307.949 435.368 308.575C435.383 309.201 435.366 309.905 435.321 310.669C435.233 312.198 434.988 313.968 434.576 315.849C434.365 316.788 434.116 317.755 433.821 318.732C433.518 319.71 433.193 320.698 432.816 321.68C432.432 322.664 432.038 323.64 431.585 324.597C431.14 325.553 430.67 326.486 430.159 327.381C429.907 327.829 429.653 328.266 429.393 328.692C429.134 329.119 428.856 329.533 428.589 329.934C428.32 330.336 428.049 330.722 427.783 331.093C427.506 331.465 427.228 331.822 426.953 332.159C426.674 332.495 426.418 332.82 426.156 333.12C425.884 333.42 425.624 333.705 425.368 333.965C424.853 334.486 424.421 334.929 423.988 335.272C423.161 335.962 422.641 336.293 422.641 336.293C422.641 336.293 422.671 335.708 422.803 334.799C422.877 334.354 422.927 333.786 423.023 333.171C423.124 332.56 423.238 331.87 423.364 331.119C423.429 330.744 423.509 330.363 423.593 329.967C423.67 329.566 423.755 329.154 423.852 328.734C423.946 328.313 424.054 327.888 424.165 327.449C424.269 327.008 424.387 326.561 424.514 326.107C424.773 325.204 425.042 324.266 425.358 323.324C425.678 322.385 426.005 321.423 426.374 320.473C427.107 318.569 427.927 316.674 428.819 314.911C429.702 313.146 430.647 311.512 431.552 310.12C432.453 308.726 433.313 307.576 433.966 306.775C434.611 305.972 435.057 305.519 435.057 305.519Z" fill="#76945A"/>
<path d="M450.366 313.899C450.366 313.899 450.108 314.458 449.579 315.343C449.315 315.789 448.982 316.311 448.587 316.896C448.191 317.481 447.728 318.12 447.209 318.801C446.17 320.161 444.881 321.659 443.42 323.165C441.961 324.675 440.317 326.181 438.606 327.606C436.889 329.026 435.104 330.364 433.349 331.52C431.597 332.68 429.882 333.669 428.349 334.441C427.582 334.827 426.864 335.162 426.215 335.444C425.565 335.725 424.987 335.955 424.499 336.132C423.527 336.489 422.926 336.639 422.926 336.639C422.926 336.639 423.182 336.078 423.711 335.192C423.973 334.747 424.307 334.223 424.701 333.637C425.097 333.052 425.558 332.411 426.077 331.731C427.116 330.37 428.403 328.871 429.866 327.367C431.327 325.858 432.972 324.353 434.686 322.931C436.405 321.515 438.192 320.179 439.948 319.023C441.702 317.864 443.415 316.875 444.948 316.103C445.714 315.718 446.432 315.38 447.081 315.099C447.731 314.817 448.309 314.586 448.796 314.408C449.765 314.05 450.366 313.899 450.366 313.899Z" fill="#76945A"/>
<path d="M451.027 331.575C451.027 331.575 450.58 331.936 449.799 332.431C449.409 332.683 448.935 332.965 448.391 333.266C447.847 333.568 447.235 333.881 446.568 334.197C445.231 334.831 443.674 335.444 442.008 335.964C440.342 336.488 438.567 336.902 436.792 337.202C435.018 337.495 433.245 337.673 431.585 337.703C429.925 337.739 428.377 337.64 427.052 337.45C426.388 337.353 425.782 337.242 425.244 337.119C424.706 336.996 424.238 336.869 423.852 336.745C423.08 336.505 422.641 336.291 422.641 336.291C422.641 336.291 423.087 335.93 423.869 335.431C424.259 335.178 424.733 334.896 425.277 334.592C425.82 334.29 426.432 333.975 427.1 333.658C428.437 333.024 429.992 332.411 431.659 331.893C433.326 331.37 435.101 330.959 436.876 330.662C438.649 330.373 440.423 330.198 442.082 330.168C443.742 330.135 445.291 330.232 446.616 330.423C447.278 330.518 447.886 330.629 448.424 330.75C448.962 330.872 449.43 330.998 449.816 331.12C450.587 331.362 451.027 331.575 451.027 331.575Z" fill="#76945A"/>
<path d="M439.915 340.55C439.915 340.55 439.825 340.584 439.664 340.631C439.506 340.672 439.264 340.753 438.975 340.819C438.39 340.958 437.578 341.108 436.645 341.189C435.711 341.27 434.657 341.289 433.572 341.205C432.485 341.126 431.369 340.943 430.287 340.681C429.208 340.413 428.163 340.066 427.225 339.647C426.756 339.44 426.311 339.216 425.899 338.983C425.486 338.754 425.109 338.503 424.764 338.267C424.078 337.786 423.542 337.303 423.183 336.929C423.001 336.747 422.871 336.574 422.777 336.469C422.685 336.358 422.641 336.291 422.641 336.291C422.641 336.291 422.73 336.257 422.891 336.209C423.05 336.166 423.291 336.085 423.581 336.019C424.167 335.878 424.981 335.727 425.914 335.646C426.378 335.609 426.879 335.577 427.395 335.575C427.91 335.571 428.445 335.589 428.987 335.631C430.075 335.71 431.189 335.895 432.27 336.16C433.347 336.431 434.391 336.779 435.329 337.199C436.268 337.615 437.103 338.099 437.79 338.58C438.476 339.06 439.014 339.541 439.372 339.914C439.555 340.094 439.686 340.267 439.78 340.37C439.871 340.483 439.915 340.55 439.915 340.55Z" fill="#76945A"/>
<path d="M422.11 318.507C422.11 318.507 422.167 318.566 422.254 318.678C422.336 318.792 422.477 318.956 422.615 319.172C422.904 319.602 423.262 320.228 423.586 321.001C423.912 321.774 424.21 322.691 424.417 323.697C424.632 324.702 424.753 325.795 424.79 326.907C424.823 328.018 424.769 329.147 424.618 330.228C424.544 330.767 424.449 331.294 424.338 331.796C424.228 332.299 424.09 332.781 423.958 333.228C423.682 334.123 423.364 334.886 423.102 335.43C422.977 335.7 422.847 335.92 422.772 336.065C422.691 336.213 422.638 336.293 422.638 336.293C422.638 336.293 422.581 336.234 422.493 336.122C422.41 336.008 422.27 335.844 422.13 335.628C421.84 335.198 421.481 334.572 421.155 333.8C420.997 333.413 420.832 332.992 420.694 332.541C420.553 332.089 420.428 331.607 420.324 331.104C420.11 330.099 419.991 329.006 419.957 327.895C419.928 326.782 419.982 325.653 420.134 324.572C420.281 323.494 420.52 322.467 420.796 321.572C421.071 320.677 421.388 319.914 421.647 319.371C421.771 319.101 421.901 318.883 421.975 318.737C422.059 318.587 422.11 318.507 422.11 318.507Z" fill="#76945A"/>
</svg>
