<?xml version="1.0" standalone="no"?>
<svg viewBox="0 0 200 200" xmlns="http://www.w3.org/2000/svg">
  <path fill="#000000" d="M40.5,-55.6C55.2,-53.5,71.7,-46.9,79.4,-34.9C87,-22.8,85.7,-5.3,78.6,7.9C71.4,21.2,58.4,30.2,48.3,42C38.3,53.7,31.3,68.2,20.9,71.4C10.4,74.7,-3.4,66.7,-18.2,62.2C-33,57.8,-48.7,56.8,-58.1,48.8C-67.6,40.7,-70.8,25.7,-72,10.9C-73.1,-3.8,-72.3,-18.2,-65.7,-28.9C-59.2,-39.7,-46.8,-46.7,-34.9,-50.1C-23,-53.5,-11.5,-53.4,0.7,-54.4C12.9,-55.5,25.7,-57.8,40.5,-55.6Z" transform="translate(100 100)" />
</svg>
